# xmcd
#
# Track frame offsets: 
#        150
#        14601
#        28288
#        43016
#        57076
#        70191
#        84530
#        97040
#        110605
#        126573
#        140749
#        153183
#        167483
#        181710
#        195583
#        209239
#
# Disc length: 2967 seconds
#
# Revision: 0
# Processed by: cddbd v1.5.2PL0 Copyright (c) Steve Scherf et al.
# Submitted via: ExactAudioCopyFreeDBPlugin 1.0
#
DISCID=ea0b9510
DTITLE=ไวพจน์ เพชรสุพรรณ - SS-11 แผ่นที่ 6 ชุด ห่วงลูก [C.T.R. 405]
DYEAR=2012
DGENRE=Country
TTITLE0=ห่วงลูก
TTITLE1=ปีหน้าแต่งแน่
TTITLE2=หมอโบราณ
TTITLE3=บ้ายอ
TTITLE4=แม่ยายจ๋า
TTITLE5=สิ้นแม่แพแตก
TTITLE6=เนื้อคู่อยู่ไหน
TTITLE7=รูปหล่อขอเมีย
TTITLE8=เปิดใจไวพจน์
TTITLE9=มัสยาหลงเยื่อ
TTITLE10=กลัวผี
TTITLE11=พ้อเมีย
TTITLE12=ข้าวใหม่ปลามัน
TTITLE13=พี่ยังคอย
TTITLE14=คนจร
TTITLE15=สายเปล (กิ่งแก้ว ศรีสาคร)
EXTD=
EXTT0=
EXTT1=
EXTT2=
EXTT3=
EXTT4=
EXTT5=
EXTT6=
EXTT7=
EXTT8=
EXTT9=
EXTT10=
EXTT11=
EXTT12=
EXTT13=
EXTT14=
EXTT15=
PLAYORDER=
